<?xml version="1.0" encoding="UTF-8" standalone="no"?>
<svg width="88px" height="125px" viewBox="0 0 88 125" version="1.1" xmlns="http://www.w3.org/2000/svg" xmlns:xlink="http://www.w3.org/1999/xlink" xmlns:sketch="http://www.bohemiancoding.com/sketch/ns">
    <!-- Generator: Sketch 3.2.2 (9983) - http://www.bohemiancoding.com/sketch -->
    <title>Slice 1</title>
    <desc>Created with Sketch.</desc>
    <defs></defs>
    <g id="Page-1" stroke="none" stroke-width="1" fill="none" fill-rule="evenodd" sketch:type="MSPage">
        <g id="python" sketch:type="MSLayerGroup" fill="#5A9FD4">
            <path d="M20,66 L20,55.921 C20,48.948 26.218,43 33.383,43 L54.485,43 C60.359,43 64,37.96 64,32.062 L64,11.945 C64,6.219 59.694,1.919 53.96,0.964 C50.331,0.36 46.829,0.085 43.217,0.102 C39.606,0.119 35.878,0.426 32.843,0.964 C23.902,2.542 22,5.848 22,11.945 L22,20 L43,20 L43,23 L14.891,23 C8.751,23 3.375,26.53 1.693,33.552 C-0.246,41.599 -0.332,46.754 1.693,55.157 C3.195,61.411 6.782,66 12.921,66 L20,66 L20,66 Z M32.054,14.628 C29.864,14.628 28.09,12.833 28.09,10.615 C28.09,8.386 29.863,6.576 32.054,6.576 C34.236,6.576 36.018,8.387 36.018,10.615 C36.018,12.833 34.236,14.628 32.054,14.628 L32.054,14.628 Z M86.175,33.552 C84.658,27.438 81.759,23 75.612,23 L67,23 L67,32.062 C67,39.335 61.516,46 54.485,46 L33.383,46 C27.603,46 22,50.403 22,56.193 L22,76.31 C22,82.035 27.388,85.403 32.974,87.044 C39.66,89.011 45.755,89.366 53.756,87.044 C59.074,85.504 64,82.406 64,76.31 L64,69 L43,69 L43,66 L75.611,66 C81.751,66 84.039,61.584 86.174,55.157 C88.38,48.539 88.286,42.042 86.175,33.552 L86.175,33.552 Z M55.814,73.625 C58.004,73.625 59.779,75.42 59.779,77.64 C59.779,79.867 58.005,81.677 55.814,81.677 C53.632,81.677 51.851,79.866 51.851,77.64 C51.851,75.42 53.632,73.625 55.814,73.625 L55.814,73.625 Z" id="Shape" sketch:type="MSShapeGroup"></path>
            <path d="M14.911,110.049 C14.911,106.292 13.839,104.363 11.697,104.258 C10.844,104.217 10.012,104.353 9.202,104.667 C8.556,104.898 8.12,105.128 7.891,105.359 L7.891,114.327 C9.262,115.187 10.479,115.587 11.54,115.524 C13.787,115.376 14.911,113.553 14.911,110.049 L14.911,110.049 Z M17.554,110.206 C17.554,112.115 17.107,113.699 16.206,114.959 C15.203,116.386 13.812,117.119 12.034,117.16 C10.694,117.203 9.313,116.782 7.892,115.902 L7.892,124.053 L5.594,123.233 L5.594,105.14 C5.971,104.678 6.456,104.281 7.045,103.944 C8.413,103.146 10.076,102.737 12.032,102.716 L12.065,102.748 C13.853,102.726 15.231,103.46 16.199,104.949 C17.101,106.315 17.554,108.066 17.554,110.206 L17.554,110.206 Z" id="Shape" sketch:type="MSShapeGroup"></path>
            <path d="M31.603,115.555 C31.603,118.115 31.346,119.888 30.833,120.873 C30.317,121.859 29.336,122.646 27.888,123.232 C26.714,123.695 25.444,123.946 24.08,123.989 L23.7,122.541 C25.086,122.353 26.062,122.163 26.628,121.975 C27.742,121.598 28.506,121.02 28.926,120.245 C29.263,119.614 29.429,118.41 29.429,116.627 L29.429,116.028 C27.858,116.742 26.21,117.096 24.488,117.096 C23.356,117.096 22.358,116.742 21.498,116.028 C20.532,115.251 20.049,114.264 20.049,113.07 L20.049,103.504 L22.348,102.717 L22.348,112.347 C22.348,113.375 22.68,114.167 23.344,114.723 C24.008,115.279 24.868,115.545 25.922,115.526 C26.976,115.504 28.105,115.095 29.304,114.298 L29.304,103.064 L31.603,103.064 L31.603,115.555 L31.603,115.555 Z" id="Shape" sketch:type="MSShapeGroup"></path>
            <path d="M40.576,117.034 C40.302,117.056 40.051,117.066 39.819,117.066 C38.519,117.066 37.505,116.757 36.781,116.136 C36.059,115.514 35.697,114.657 35.697,113.563 L35.697,104.509 L34.123,104.509 L34.123,103.063 L35.697,103.063 L35.697,99.223 L37.993,98.406 L37.993,103.063 L40.576,103.063 L40.576,104.509 L37.993,104.509 L37.993,113.5 C37.993,114.362 38.224,114.974 38.687,115.33 C39.084,115.625 39.716,115.793 40.576,115.836 L40.576,117.034 L40.576,117.034 Z" id="Shape" sketch:type="MSShapeGroup"></path>
            <path d="M54.493,116.845 L52.195,116.845 L52.195,107.972 C52.195,107.07 51.984,106.292 51.564,105.643 C51.079,104.909 50.405,104.541 49.54,104.541 C48.486,104.541 47.168,105.097 45.586,106.209 L45.586,116.845 L43.288,116.845 L43.288,95.637 L45.586,94.912 L45.586,104.571 C47.055,103.503 48.659,102.967 50.402,102.967 C51.62,102.967 52.605,103.377 53.36,104.195 C54.117,105.012 54.494,106.031 54.494,107.248 L54.494,116.845 L54.493,116.845 L54.493,116.845 Z" id="Shape" sketch:type="MSShapeGroup"></path>
            <path d="M66.711,109.688 C66.711,108.244 66.437,107.052 65.891,106.109 C65.242,104.96 64.234,104.353 62.87,104.291 C60.35,104.437 59.092,106.242 59.092,109.703 C59.092,111.29 59.354,112.615 59.882,113.679 C60.556,115.035 61.567,115.703 62.915,115.681 C65.446,115.661 66.711,113.664 66.711,109.688 L66.711,109.688 Z M69.229,109.703 C69.229,111.758 68.703,113.468 67.654,114.834 C66.5,116.362 64.905,117.13 62.871,117.13 C60.854,117.13 59.282,116.362 58.148,114.834 C57.12,113.468 56.606,111.758 56.606,109.703 C56.606,107.771 57.162,106.147 58.274,104.824 C59.448,103.421 60.992,102.717 62.901,102.717 C64.81,102.717 66.364,103.421 67.561,104.824 C68.672,106.147 69.229,107.771 69.229,109.703 L69.229,109.703 Z" id="Shape" sketch:type="MSShapeGroup"></path>
            <path d="M82.407,116.845 L80.108,116.845 L80.108,107.469 C80.108,106.441 79.798,105.638 79.18,105.06 C78.561,104.484 77.737,104.205 76.708,104.227 C75.617,104.248 74.578,104.605 73.592,105.296 L73.592,116.845 L71.293,116.845 L71.293,105.012 C72.616,104.049 73.833,103.42 74.945,103.126 C75.994,102.852 76.919,102.716 77.716,102.716 C78.261,102.716 78.775,102.769 79.258,102.874 C80.161,103.083 80.895,103.47 81.461,104.038 C82.092,104.667 82.407,105.422 82.407,106.305 L82.407,116.845 L82.407,116.845 Z" id="Shape" sketch:type="MSShapeGroup"></path>
        </g>
    </g>
</svg>
