<?xml version="1.0" encoding="UTF-8" standalone="no"?>
<svg width="515px" height="515px" viewBox="0 0 515 515" version="1.1" xmlns="http://www.w3.org/2000/svg" xmlns:xlink="http://www.w3.org/1999/xlink" xmlns:sketch="http://www.bohemiancoding.com/sketch/ns">
    <!-- Generator: Sketch 3.2.2 (9983) - http://www.bohemiancoding.com/sketch -->
    <title>scala</title>
    <desc>Created with Sketch.</desc>
    <defs>
        <linearGradient x1="0%" y1="0%" x2="100%" y2="0%" id="linearGradient-1">
            <stop stop-color="#646464" offset="0%"></stop>
            <stop stop-color="#000000" offset="100%"></stop>
        </linearGradient>
        <linearGradient x1="0%" y1="0%" x2="100%" y2="0%" id="linearGradient-2">
            <stop stop-color="#A00000" offset="0%"></stop>
            <stop stop-color="#FF0000" offset="100%"></stop>
        </linearGradient>
    </defs>
    <g id="Page-1" stroke="none" stroke-width="1" fill="none" fill-rule="evenodd" sketch:type="MSPage">
        <g id="scala" sketch:type="MSArtboardGroup">
            <g id="logo" sketch:type="MSLayerGroup" transform="translate(126.000000, -30.000000)">
                <g id="Group" fill="#1C1E1B" sketch:type="MSShapeGroup">
                    <path d="M0,58.8235294 C0,58.8235294 221,36.7647059 221,0 L221,88.2352941 C221,88.2352941 221,125 0,147.058824 L0,235.294118 L0,58.8235294 Z" id="Shape" transform="translate(110.500000, 117.647059) scale(1, -1) translate(-110.500000, -117.647059) "></path>
                    <path d="M0,176.470588 C0,176.470588 221,154.411765 221,117.647059 L221,205.882353 C221,205.882353 221,242.647059 0,264.705882 L0,352.941176 L0,176.470588 Z" id="Shape" transform="translate(110.500000, 235.294118) scale(1, -1) translate(-110.500000, -235.294118) "></path>
                </g>
                <g id="Group" transform="translate(0.000000, 29.411765)" fill="#D60F24" sketch:type="MSShapeGroup">
                    <path d="M0,58.8235294 C0,58.8235294 221,36.7647059 221,0 L221,88.2352941 C221,88.2352941 221,125 0,147.058824 L0,235.294118 L0,58.8235294 Z" id="Shape"></path>
                    <path d="M0,176.470588 C0,176.470588 221,154.411765 221,117.647059 L221,205.882353 C221,205.882353 221,242.647059 0,264.705882 L0,352.941176 L0,176.470588 Z" id="Shape"></path>
                    <path d="M0,294.117647 C0,294.117647 221,272.058824 221,235.294118 L221,323.529412 C221,323.529412 221,360.294118 0,382.352941 L0,470.588235 L0,294.117647 Z" id="Shape"></path>
                </g>
            </g>
            <path d="M2.13162821e-14,491.368065 C2.13162821e-14,491.368065 18.6,515 52.2,515 C84.4,515 103,494.572395 103,470.740189 C103,423.67659 38.2,426.079838 38.2,408.656292 C38.2,402.047361 45.6,399.043302 52.8,399.043302 C59.4,399.043302 66.8,402.247632 66.8,407.454668 L66.8,413.663058 L98.8,413.663058 L98.8,398.041949 C98.8,376.212449 72.2,367 53.2,367 C24.8,367 2.2,384.223275 2.2,410.058187 C2.2,454.918809 67,456.721245 67,472.542625 C67,480.553451 59.8,483.156969 52.6,483.156969 C34.6,483.156969 19.8,466.334235 19.8,466.334235 L2.13162821e-14,491.368065 Z M115,460.899814 C115,489.352505 135.6,515 172.4,515 C201.8,515 218,494.962894 218,494.962894 L204.2,471.719852 C204.2,471.719852 190.6,485.144712 175.8,485.144712 C163,485.144712 149.8,478.131725 149.8,460.499072 C149.8,446.673469 158.6,435.653061 173.2,435.653061 C177.4,435.653061 181.2,436.855288 181.2,440.061224 L181.2,445.471243 L211.2,445.471243 L211.2,431.244898 C211.2,412.61039 187.6,407 173.2,407 C134.2,407 115,433.649351 115,460.899814 L115,460.899814 Z M224,481.738404 C224,502.176252 239.829314,515 259.064935,515 C280.705009,515 287.918367,499.972171 287.918367,499.972171 L288.319109,499.972171 L288.319109,501.77551 C288.319109,506.384045 291.925788,512.595547 301.944341,512.595547 L332,512.595547 L332,483.541744 L324.3859,483.541744 C321.580705,483.541744 319.977737,481.938776 319.977737,479.133581 L319.977737,449.077922 C319.977737,425.434137 308.155844,407 272.089054,407 C260.267161,407 231.012987,408.202226 231.012987,431.244898 L231.012987,442.666048 L263.072356,442.666048 L263.072356,438.057514 C263.072356,434.050093 267.680891,433.048237 272.089054,433.048237 C280.705009,433.048237 285.313544,436.654917 285.313544,446.473098 L285.313544,447.675325 L283.910946,447.675325 C267.881262,447.675325 224,451.081633 224,481.738404 L224,481.738404 Z M259,479.313131 C259,471.030303 271.69403,468 282.776119,468 L286,468 L286,469.616162 C286,478.10101 277.940299,488 268.873134,488 C262.022388,488 259,484.161616 259,479.313131 L259,479.313131 Z M351.081911,497.4 C351.081911,507.6 355.511945,512 365.78157,512 L398,512 L398,483 L390.348123,483 C387.52901,483 385.918089,481.4 385.918089,478.6 L385.918089,383.6 C385.918089,373.4 381.488055,369 371.21843,369 L339,369 L339,398 L346.651877,398 C349.47099,398 351.081911,399.6 351.081911,402.4 L351.081911,497.4 Z M407,481.738404 C407,502.176252 422.829314,515 442.064935,515 C463.705009,515 470.918367,499.972171 470.918367,499.972171 L471.319109,499.972171 L471.319109,501.77551 C471.319109,506.384045 474.925788,512.595547 484.944341,512.595547 L515,512.595547 L515,483.541744 L507.3859,483.541744 C504.580705,483.541744 502.977737,481.938776 502.977737,479.133581 L502.977737,449.077922 C502.977737,425.434137 491.155844,407 455.089054,407 C443.267161,407 414.012987,408.202226 414.012987,431.244898 L414.012987,442.666048 L446.072356,442.666048 L446.072356,438.057514 C446.072356,434.050093 450.680891,433.048237 455.089054,433.048237 C463.705009,433.048237 468.313544,436.654917 468.313544,446.473098 L468.313544,447.675325 L466.910946,447.675325 C450.881262,447.675325 407,451.081633 407,481.738404 L407,481.738404 Z M442,479.313131 C442,471.030303 454.69403,468 465.776119,468 L469,468 L469,469.616162 C469,478.10101 460.940299,488 451.873134,488 C445.022388,488 442,484.161616 442,479.313131 L442,479.313131 Z" id="Scala-2" fill="#1C1E1B" sketch:type="MSShapeGroup"></path>
        </g>
    </g>
</svg>